<svg width="91" height="91" viewBox="0 0 91 91" fill="none" xmlns="http://www.w3.org/2000/svg">
<g filter="url(#filter0_d_3547_33436)">
<rect x="7" y="4.33997" width="76.5" height="76.5" rx="38.25" fill="white" fill-opacity="0.01" shape-rendering="crispEdges"/>
<g clip-path="url(#clip0_3547_33436)">
<path d="M54.8884 46.031H54.85C54.1836 45.3026 53.3892 44.9384 52.4665 44.9384C51.5439 44.9384 50.7495 45.3026 50.0831 46.031L47.8919 48.3843C47.405 48.9446 46.8027 49.2247 46.0851 49.2247C45.3675 49.2247 44.7653 48.9446 44.2783 48.3843L36.7052 40.316C36.2183 39.7837 35.9748 39.1324 35.9748 38.362C35.9748 37.5916 36.2183 36.9262 36.7052 36.3659L38.8964 34.0127C39.5627 33.2843 39.8959 32.4089 39.8959 31.3863C39.8959 30.3638 39.5627 29.4883 38.8964 28.76L34.0911 23.5492C33.4504 22.8208 32.6623 22.4566 31.7269 22.4566C30.7915 22.4566 29.9906 22.8208 29.3243 23.5492L27.5944 25.4402C26.031 27.1491 24.9675 29.1662 24.4036 31.4914C23.8655 33.7326 23.8655 35.9877 24.4036 38.2569C24.9675 40.5822 26.031 42.5992 27.5944 44.3081L40.6648 58.3855C42.2281 60.0944 44.0605 61.257 46.162 61.8733C48.2379 62.4617 50.301 62.4617 52.3512 61.8733C54.4784 61.257 56.3236 60.0944 57.8869 58.3855L59.6168 56.6626C60.2832 55.9342 60.6163 55.0588 60.6163 54.0362C60.6163 53.0137 60.2832 52.1382 59.6168 51.4098L54.8884 46.031ZM30.9388 25.2721C31.1439 25.048 31.4001 24.9359 31.7077 24.9359C32.0152 24.9359 32.2843 25.048 32.515 25.2721L37.3203 30.5249C37.5253 30.749 37.6278 31.0361 37.6278 31.3863C37.6278 31.7365 37.5253 32.0237 37.3203 32.2478L36.513 33.1302L30.1316 26.1546L30.9388 25.2721ZM42.2409 56.6206L29.1705 42.5432C27.966 41.2265 27.1331 39.6997 26.6717 37.9628C26.2104 36.2259 26.1464 34.4679 26.4795 32.689C26.8127 30.9101 27.5047 29.3202 28.5554 27.9195L34.9368 34.8952C34.373 35.5675 34.0078 36.3449 33.8412 37.2274C33.6747 38.1099 33.7003 38.9783 33.9181 39.8328C34.136 40.6872 34.5396 41.4366 35.1291 42.0809L42.7022 50.1492C43.2916 50.7935 43.9772 51.2418 44.7589 51.4939C45.5405 51.746 46.335 51.774 47.1423 51.5779C47.9496 51.3818 48.6608 50.9896 49.2758 50.4013L55.6188 57.335C54.3374 58.5116 52.883 59.275 51.2556 59.6252C49.6282 59.9753 48.0201 59.8983 46.4311 59.394C44.8422 58.8898 43.4454 57.9653 42.2409 56.6206ZM58.0407 54.8977L57.2718 55.6541L50.8904 48.6364L51.6593 47.7539C51.8899 47.5298 52.159 47.4178 52.4665 47.4178C52.7741 47.4178 53.0432 47.5298 53.2738 47.7539L58.0407 53.1748C58.2457 53.3989 58.3546 53.679 58.3674 54.0152C58.3803 54.3514 58.2713 54.6455 58.0407 54.8977ZM43.3173 20.2295C43.0097 20.2295 42.747 20.3485 42.5292 20.5867C42.3114 20.8248 42.2024 21.1189 42.2024 21.4691C42.2024 21.8193 42.3114 22.1135 42.5292 22.3516C42.747 22.5897 43.0097 22.7088 43.3173 22.7088C46.3927 22.7088 49.2374 23.5492 51.8515 25.2301C54.4143 26.8549 56.4389 29.0681 57.9254 31.8696C59.4631 34.7271 60.2319 37.8367 60.2319 41.1985C60.2319 41.5347 60.3408 41.8218 60.5587 42.0599C60.7765 42.2981 61.0456 42.4171 61.366 42.4171C61.6863 42.4171 61.9554 42.2981 62.1732 42.0599C62.3911 41.8218 62.5 41.5347 62.5 41.1985C62.5 37.3885 61.6286 33.8586 59.8859 30.6089C58.1945 27.4433 55.9007 24.9359 53.0047 23.087C50.0319 21.182 46.8027 20.2295 43.3173 20.2295ZM43.3173 27.6254C45.5726 27.6254 47.6613 28.2417 49.5834 29.4743C51.4542 30.679 52.9407 32.3038 54.0427 34.3489C55.1703 36.45 55.7341 38.7332 55.7341 41.1985C55.7341 41.5347 55.8431 41.8218 56.0609 42.0599C56.2787 42.2981 56.5414 42.4171 56.849 42.4171C57.1565 42.4171 57.4256 42.2981 57.6563 42.0599C57.8869 41.8218 58.0022 41.5347 58.0022 41.1985C58.0022 38.285 57.3231 35.5815 55.9648 33.0882C54.6834 30.679 52.9407 28.774 50.7366 27.3732C48.4557 25.8884 45.9826 25.1461 43.3173 25.1461C43.0097 25.1461 42.747 25.2721 42.5292 25.5243C42.3114 25.7764 42.2024 26.0705 42.2024 26.4067C42.2024 26.7429 42.3114 27.03 42.5292 27.2682C42.747 27.5063 43.0097 27.6254 43.3173 27.6254ZM43.3173 32.5419C44.7525 32.5419 46.0723 32.9271 47.2768 33.6975C48.4814 34.4679 49.4424 35.5185 50.16 36.8492C50.8776 38.1799 51.2364 39.6157 51.2364 41.1565C51.2364 41.5207 51.3453 41.8218 51.5632 42.0599C51.781 42.2981 52.0437 42.4171 52.3512 42.4171C52.6588 42.4171 52.9215 42.2981 53.1393 42.0599C53.3571 41.8218 53.4661 41.5207 53.4661 41.1565C53.4661 39.1674 53.0112 37.3254 52.1013 35.6306C51.1915 33.9357 49.9614 32.584 48.4109 31.5754C46.8604 30.5669 45.1625 30.0626 43.3173 30.0626C43.0097 30.0626 42.747 30.1887 42.5292 30.4408C42.3114 30.693 42.2024 30.9871 42.2024 31.3233C42.2024 31.6595 42.3114 31.9466 42.5292 32.1847C42.747 32.4229 43.0097 32.5419 43.3173 32.5419ZM43.3173 37.5005C44.2655 37.5005 45.0664 37.8577 45.7199 38.5721C46.3734 39.2865 46.7002 40.1619 46.7002 41.1985C46.7002 41.5347 46.8155 41.8218 47.0462 42.0599C47.2768 42.2981 47.5459 42.4171 47.8535 42.4171C48.161 42.4171 48.4237 42.2981 48.6415 42.0599C48.8594 41.8218 48.9683 41.5347 48.9683 41.1985C48.9683 40.0779 48.7184 39.0414 48.2187 38.0889C47.7189 37.1364 47.0334 36.387 46.162 35.8407C45.2906 35.2944 44.3552 35.0212 43.3557 35.0212C43.0225 35.0212 42.747 35.1403 42.5292 35.3784C42.3114 35.6166 42.2024 35.9107 42.2024 36.2609C42.2024 36.6111 42.3114 36.9052 42.5292 37.1434C42.747 37.3815 43.0097 37.5005 43.3173 37.5005Z" fill="#4A8C8A"/>
</g>
</g>
<defs>
<filter id="filter0_d_3547_33436" x="0" y="0.339966" width="90.5" height="90.5" filterUnits="userSpaceOnUse" color-interpolation-filters="sRGB">
<feFlood flood-opacity="0" result="BackgroundImageFix"/>
<feColorMatrix in="SourceAlpha" type="matrix" values="0 0 0 0 0 0 0 0 0 0 0 0 0 0 0 0 0 0 127 0" result="hardAlpha"/>
<feOffset dy="3"/>
<feGaussianBlur stdDeviation="3.5"/>
<feComposite in2="hardAlpha" operator="out"/>
<feColorMatrix type="matrix" values="0 0 0 0 0 0 0 0 0 0 0 0 0 0 0 0 0 0 0.11 0"/>
<feBlend mode="normal" in2="BackgroundImageFix" result="effect1_dropShadow_3547_33436"/>
<feBlend mode="normal" in="SourceGraphic" in2="effect1_dropShadow_3547_33436" result="shape"/>
</filter>
<clipPath id="clip0_3547_33436">
<rect width="39" height="43" fill="white" transform="matrix(1 0 0 -1 24 62.9503)"/>
</clipPath>
</defs>
</svg>
