<svg width="24" height="25" viewBox="0 0 24 25" fill="none" xmlns="http://www.w3.org/2000/svg">
<path fill-rule="evenodd" clip-rule="evenodd" d="M16.6016 16.75L18.3858 13.5304C17.7293 13.3474 17.1181 13.0556 16.5729 12.6756L15.4234 14.75H9.72076L7.38743 7.75H14C14 7.04873 14.1203 6.37556 14.3414 5.75H6.72076L5.72076 2.75H2V4.75H4.27924L7.88563 15.5692L6.17984 17.8435C5.96368 17.7826 5.73565 17.75 5.5 17.75C4.11929 17.75 3 18.8693 3 20.25C3 21.6307 4.11929 22.75 5.5 22.75C6.52516 22.75 7.4062 22.133 7.79198 21.25H16.208C16.5938 22.133 17.4748 22.75 18.5 22.75C19.8807 22.75 21 21.6307 21 20.25C21 18.8693 19.8807 17.75 18.5 17.75C17.4748 17.75 16.5938 18.367 16.208 19.25H7.79198C7.77178 19.2038 7.75022 19.1583 7.72735 19.1135L9.5 16.75H16.6016ZM18.5 19.75C18.2239 19.75 18 19.9739 18 20.25C18 20.5261 18.2239 20.75 18.5 20.75C18.7761 20.75 19 20.5261 19 20.25C19 19.9739 18.7761 19.75 18.5 19.75ZM5 20.25C5 19.9739 5.22386 19.75 5.5 19.75C5.77614 19.75 6 19.9739 6 20.25C6 20.5261 5.77614 20.75 5.5 20.75C5.22386 20.75 5 20.5261 5 20.25ZM19 11.75V8.75H16V6.75H19V3.75L21 3.75V6.75H24V8.75H21V11.75H19Z" fill="#E17A6E"/>
</svg>
