<svg width="57" height="40" viewBox="0 0 57 40" fill="none" xmlns="http://www.w3.org/2000/svg">
<rect width="40" height="40" rx="20" fill="#4A8C8A"/>
<path d="M26 27C26.5304 27 27.0391 27.2107 27.4142 27.5858C27.7893 27.9609 28 28.4696 28 29C28 29.5304 27.7893 30.0391 27.4142 30.4142C27.0391 30.7893 26.5304 31 26 31C25.4696 31 24.9609 30.7893 24.5858 30.4142C24.2107 30.0391 24 29.5304 24 29C24 27.89 24.89 27 26 27ZM10 11H13.27L14.21 13H29C29.2652 13 29.5196 13.1054 29.7071 13.2929C29.8946 13.4804 30 13.7348 30 14C30 14.17 29.95 14.34 29.88 14.5L26.3 20.97C25.96 21.58 25.3 22 24.55 22H17.1L16.2 23.63L16.17 23.75C16.17 23.8163 16.1963 23.8799 16.2432 23.9268C16.2901 23.9737 16.3537 24 16.42 24H28V26H16C15.4696 26 14.9609 25.7893 14.5858 25.4142C14.2107 25.0391 14 24.5304 14 24C14 23.65 14.09 23.32 14.24 23.04L15.6 20.59L12 13H10V11ZM16 27C16.5304 27 17.0391 27.2107 17.4142 27.5858C17.7893 27.9609 18 28.4696 18 29C18 29.5304 17.7893 30.0391 17.4142 30.4142C17.0391 30.7893 16.5304 31 16 31C15.4696 31 14.9609 30.7893 14.5858 30.4142C14.2107 30.0391 14 29.5304 14 29C14 27.89 14.89 27 16 27ZM25 20L27.78 15H15.14L17.5 20H25Z" fill="white"/>
</svg>
