<svg width="24" height="25" viewBox="0 0 24 25" fill="none" xmlns="http://www.w3.org/2000/svg">
<path fill-rule="evenodd" clip-rule="evenodd" d="M16.6016 16.5L18.3858 13.2804C17.7293 13.0974 17.1181 12.8056 16.5729 12.4256L15.4234 14.5H9.72076L7.38743 7.5H14C14 6.79873 14.1203 6.12556 14.3414 5.5H6.72076L5.72076 2.5H2V4.5H4.27924L7.88563 15.3192L6.17984 17.5935C5.96368 17.5326 5.73565 17.5 5.5 17.5C4.11929 17.5 3 18.6193 3 20C3 21.3807 4.11929 22.5 5.5 22.5C6.52516 22.5 7.4062 21.883 7.79198 21H16.208C16.5938 21.883 17.4748 22.5 18.5 22.5C19.8807 22.5 21 21.3807 21 20C21 18.6193 19.8807 17.5 18.5 17.5C17.4748 17.5 16.5938 18.117 16.208 19H7.79198C7.77178 18.9538 7.75022 18.9083 7.72735 18.8635L9.5 16.5H16.6016ZM18.5 19.5C18.2239 19.5 18 19.7239 18 20C18 20.2761 18.2239 20.5 18.5 20.5C18.7761 20.5 19 20.2761 19 20C19 19.7239 18.7761 19.5 18.5 19.5ZM5 20C5 19.7239 5.22386 19.5 5.5 19.5C5.77614 19.5 6 19.7239 6 20C6 20.2761 5.77614 20.5 5.5 20.5C5.22386 20.5 5 20.2761 5 20ZM19 11.5V8.5H16V6.5H19V3.5L21 3.5V6.5H24V8.5H21V11.5H19Z" fill="white"/>
</svg>
