<svg width="19" height="19" viewBox="0 0 19 19" fill="none" xmlns="http://www.w3.org/2000/svg">
<path d="M9.5 11.75C10.7426 11.75 11.75 10.7426 11.75 9.5C11.75 8.25736 10.7426 7.25 9.5 7.25C8.25736 7.25 7.25 8.25736 7.25 9.5C7.25 10.7426 8.25736 11.75 9.5 11.75Z" fill="white"/>
<path d="M17.9038 9.30875C17.2422 7.59743 16.0936 6.11747 14.6001 5.0518C13.1065 3.98612 11.3335 3.38145 9.5 3.3125C7.66655 3.38145 5.89347 3.98612 4.39993 5.0518C2.90639 6.11747 1.75785 7.59743 1.09625 9.30875C1.05157 9.43234 1.05157 9.56766 1.09625 9.69125C1.75785 11.4026 2.90639 12.8825 4.39993 13.9482C5.89347 15.0139 7.66655 15.6186 9.5 15.6875C11.3335 15.6186 13.1065 15.0139 14.6001 13.9482C16.0936 12.8825 17.2422 11.4026 17.9038 9.69125C17.9484 9.56766 17.9484 9.43234 17.9038 9.30875ZM9.5 13.1562C8.77687 13.1562 8.06997 12.9418 7.4687 12.5401C6.86743 12.1383 6.3988 11.5673 6.12207 10.8992C5.84534 10.2311 5.77293 9.49594 5.91401 8.7867C6.05509 8.07746 6.40331 7.42598 6.91465 6.91464C7.42598 6.40331 8.07746 6.05508 8.78671 5.914C9.49595 5.77293 10.2311 5.84533 10.8992 6.12207C11.5673 6.3988 12.1383 6.86743 12.5401 7.4687C12.9418 8.06996 13.1563 8.77686 13.1563 9.5C13.1548 10.4692 12.7691 11.3984 12.0837 12.0837C11.3984 12.7691 10.4692 13.1548 9.5 13.1562Z" fill="white"/>
</svg>
