<svg width="19" height="14" viewBox="0 0 19 14" fill="none" xmlns="http://www.w3.org/2000/svg">
<path d="M0.935547 1.87969H17.8105C18.121 1.87969 18.373 1.61149 18.373 1.27969C18.373 0.947888 18.121 0.679688 17.8105 0.679688H0.935547C0.625047 0.679688 0.373047 0.947888 0.373047 1.27969C0.373047 1.61149 0.624484 1.87969 0.935547 1.87969Z" fill="white"/>
<path d="M0.935547 13.8797H17.8105C18.121 13.8797 18.373 13.6115 18.373 13.2797C18.373 12.9479 18.121 12.6797 17.8105 12.6797H0.935547C0.625047 12.6797 0.373047 12.9479 0.373047 13.2797C0.373047 13.6115 0.624484 13.8797 0.935547 13.8797Z" fill="white"/>
<path d="M0.935547 7.87969H17.8105C18.121 7.87969 18.373 7.61149 18.373 7.27969C18.373 6.94789 18.121 6.67969 17.8105 6.67969H0.935547C0.625047 6.67969 0.373047 6.94789 0.373047 7.27969C0.373047 7.61149 0.624484 7.87969 0.935547 7.87969Z" fill="white"/>
</svg>
