<svg width="23" height="22" viewBox="0 0 23 22" fill="none" xmlns="http://www.w3.org/2000/svg">
<path d="M2.32031 2.75H3.57747C4.44681 2.75 5.19664 3.36056 5.37278 4.21189L7.51785 14.5798C7.69399 15.4311 8.44381 16.0417 9.3132 16.0417H15.612" stroke="white" stroke-linecap="round" stroke-linejoin="round"/>
<path d="M5.8252 6.41797H17.6044C18.2134 6.41797 18.6531 7.00088 18.4858 7.58646L17.5562 10.8402C17.2189 12.0207 16.1398 12.8346 14.912 12.8346H7.15722" stroke="white" stroke-linecap="round" stroke-linejoin="round"/>
<path d="M14.6947 19.2487C14.9478 19.2487 15.153 19.0435 15.153 18.7904C15.153 18.5372 14.9478 18.332 14.6947 18.332C14.4415 18.332 14.2363 18.5372 14.2363 18.7904C14.2363 19.0435 14.4415 19.2487 14.6947 19.2487Z" fill="white" stroke="white" stroke-linecap="round" stroke-linejoin="round"/>
<path d="M9.19466 18.3333C9.44779 18.3333 9.65299 18.5385 9.65299 18.7917C9.65299 19.0448 9.44779 19.25 9.19466 19.25C8.94153 19.25 8.73633 19.0448 8.73633 18.7917C8.73633 18.5385 8.94153 18.3333 9.19466 18.3333Z" fill="white" stroke="white" stroke-linecap="round" stroke-linejoin="round"/>
<path d="M19.6445 3.30078V6.05078" stroke="white" stroke-linecap="round"/>
<path d="M21.0195 4.67578H18.2695" stroke="white" stroke-linecap="round"/>
</svg>
