<svg width="24" height="20" viewBox="0 0 24 20" fill="none" xmlns="http://www.w3.org/2000/svg">
<g clip-path="url(#clip0_1162_2956)">
<path d="M16.7831 2.20312C16.1083 2.20312 15.456 2.33486 14.8261 2.59833C14.1625 2.87378 13.6002 3.28097 13.1391 3.81989L12.0256 4.98756L10.929 3.81989C10.2542 3.12528 9.4613 2.65223 8.55029 2.40073C7.67302 2.16121 6.79576 2.16121 5.91849 2.40073C5.01873 2.65223 4.23144 3.12528 3.55662 3.81989C2.8818 4.5145 2.42067 5.34085 2.17323 6.29893C1.93705 7.23306 1.93705 8.1672 2.17323 9.10133C2.42067 10.0714 2.8818 10.9037 3.55662 11.5983C4.45638 12.5325 5.78353 13.9217 7.53806 15.766C9.36008 17.6822 10.721 19.1073 11.6207 20.0414C11.7219 20.1492 11.8485 20.2031 12.0003 20.2031C12.1521 20.2031 12.2787 20.1492 12.3799 20.0414L20.444 11.5983C21.1188 10.9037 21.58 10.0714 21.8274 9.10133C22.0523 8.1672 22.0523 7.23306 21.8274 6.29893C21.58 5.34085 21.1188 4.5145 20.444 3.81989C19.9716 3.28097 19.4149 2.87378 18.7738 2.59833C18.1552 2.33486 17.4917 2.20312 16.7831 2.20312ZM16.7831 3.37079C17.3117 3.37079 17.8347 3.48157 18.3521 3.70312C18.8694 3.92468 19.3137 4.23306 19.6848 4.62827C20.2022 5.17917 20.5537 5.8169 20.7392 6.54145C20.9248 7.266 20.9248 7.99354 20.7392 8.72408C20.5537 9.45462 20.2022 10.0953 19.6848 10.6462L12.0256 18.7121C10.3723 16.9516 7.86985 14.3289 4.51824 10.8438L4.31579 10.6462C3.79843 10.1193 3.44696 9.49654 3.26138 8.77798C3.07581 8.05941 3.07581 7.33786 3.26138 6.6133C3.44696 5.88875 3.79843 5.25103 4.31579 4.70013C4.83315 4.14923 5.4433 3.77498 6.14624 3.57738C6.84918 3.37977 7.55493 3.37977 8.26349 3.57738C8.97205 3.77498 9.58502 4.14923 10.1024 4.70013L11.6207 6.24504C11.7219 6.35283 11.8485 6.40672 12.0003 6.40672C12.1521 6.40672 12.2787 6.35283 12.3799 6.24504L13.8982 4.70013C14.3031 4.26899 14.7558 3.93965 15.2563 3.71211C15.7568 3.48456 16.2657 3.37079 16.7831 3.37079Z" fill="white"/>
</g>
<defs>
<clipPath id="clip0_1162_2956">
<rect width="23.67" height="20" fill="white" transform="matrix(1 0 0 -1 0 20)"/>
</clipPath>
</defs>
</svg>
