<svg width="18" height="18" viewBox="0 0 18 18" fill="none" xmlns="http://www.w3.org/2000/svg">
<path d="M17.9249 16.9454L13.4212 12.4387C13.3611 12.3665 13.2651 12.3305 13.1329 12.3305H12.7186C13.3311 11.6695 13.7995 10.9244 14.1238 10.0951C14.46 9.22984 14.6282 8.30446 14.6282 7.31898C14.6282 6.00901 14.2919 4.78317 13.6193 3.64146C12.9708 2.5358 12.0941 1.65849 10.9892 1.00951C9.84821 0.336504 8.62319 0 7.31409 0C6.005 0 4.77998 0.336504 3.63903 1.00951C2.53411 1.65849 1.65738 2.5358 1.00884 3.64146C0.33628 4.78317 0 6.00901 0 7.31898C0 8.62894 0.33628 9.85478 1.00884 10.9965C1.65738 12.1022 2.53411 12.9795 3.63903 13.6284C4.77998 14.3015 6.005 14.638 7.31409 14.638C8.26289 14.638 9.16964 14.4727 10.0344 14.1422C10.8991 13.8117 11.6617 13.34 12.3223 12.7271V13.0335C12.3223 13.1657 12.3583 13.2679 12.4304 13.34L16.9341 17.8468C17.1383 18.0511 17.3364 18.0511 17.5286 17.8468L17.8349 17.5403C17.9309 17.4922 17.985 17.4081 17.997 17.2879C18.009 17.1678 17.985 17.0536 17.9249 16.9454ZM7.31409 13.5383C6.19716 13.5383 5.1583 13.2499 4.1975 12.673C3.24871 12.1202 2.50409 11.3751 1.96364 10.4377C1.38716 9.47621 1.09892 8.43665 1.09892 7.31898C1.09892 6.2013 1.38716 5.16174 1.96364 4.2003C2.50409 3.25088 3.24871 2.50576 4.1975 1.96495C5.1583 1.38808 6.19716 1.09965 7.31409 1.09965C8.43103 1.09965 9.46989 1.38808 10.4307 1.96495C11.3675 2.50576 12.1121 3.25088 12.6646 4.2003C13.241 5.16174 13.5293 6.2013 13.5293 7.31898C13.5293 8.43665 13.241 9.47621 12.6646 10.4377C12.1121 11.3751 11.3675 12.1202 10.4307 12.673C9.46989 13.2499 8.43103 13.5383 7.31409 13.5383Z" fill="white"/>
</svg>
